<svg xmlns="http://www.w3.org/2000/svg" viewBox="-42 0 512 512" width="512" height="512"><path d="M324 134c0 31-11 58-33 80s-49 33-80 33c-32 0-59-11-81-33s-33-49-33-80c0-32 11-59 33-81s49-33 81-33c31 0 58 11 80 33s33 49 33 81zm0 0" fill="#ffbb85" data-original="#FFBB85"/><path d="M411 411c0 25-8 45-24 59a84 84 0 01-60 22H100c-25 0-45-7-60-22a78 78 0 01-23-59 404 404 0 014-58l8-30c3-9 7-19 12-28s12-17 19-24 16-13 26-17c11-4 22-6 34-6 5 0 10 2 19 8l19 12a110 110 0 0056 16c10 0 20-1 30-5 10-3 19-7 25-11l19-12c9-6 14-8 19-8 12 0 24 2 34 6s19 10 27 17a148 148 0 0131 52 235 235 0 0111 60l1 28zm0 0" fill="#e61807" data-original="#6AA9FF" data-old_color="#6aa9ff"/><path d="M211 247V20c31 0 58 11 80 33s33 49 33 81c0 31-11 58-33 80s-49 33-80 33zm0 0" fill="#f5a86c" data-original="#F5A86C"/><path d="M411 411c0 25-8 45-24 59a84 84 0 01-60 22H211V284h3c10 0 20-1 30-5 10-3 19-7 25-11l19-12c9-6 14-8 19-8 12 0 24 2 34 6s19 10 27 17a148 148 0 0131 52 235 235 0 0111 60l1 28zm0 0" fill="#880a1f" data-original="#2682FF" class="active-path" data-old_color="#2682ff"/></svg>
